<svg width="62" height="15" viewBox="0 0 62 15" fill="none" xmlns="http://www.w3.org/2000/svg">
<path d="M3.28977 12.1364C2.77273 12.1364 2.32528 11.9886 1.94744 11.6932C1.5696 11.3949 1.27841 10.9901 1.07386 10.4787C0.869318 9.96733 0.767045 9.3892 0.767045 8.74432C0.767045 8.10227 0.870739 7.52557 1.07812 7.0142C1.28551 6.50284 1.57813 6.09801 1.95597 5.79972C2.33381 5.50142 2.77841 5.35227 3.28977 5.35227C3.63636 5.35227 3.95597 5.42472 4.24858 5.5696C4.54119 5.71165 4.79545 5.91619 5.01136 6.18324C5.22727 6.44744 5.39205 6.76136 5.50568 7.125H5.53977V3.27273H5.8125V12H5.53977V10.3636H5.50568C5.38636 10.7244 5.22017 11.0384 5.0071 11.3054C4.79403 11.5696 4.54119 11.7741 4.24858 11.919C3.95881 12.0639 3.6392 12.1364 3.28977 12.1364ZM3.28977 11.8636C3.75284 11.8636 4.15199 11.7273 4.48722 11.4545C4.82528 11.179 5.08523 10.8068 5.26705 10.3381C5.44886 9.86648 5.53977 9.33523 5.53977 8.74432C5.53977 8.15341 5.44744 7.62358 5.26278 7.15483C5.08097 6.68324 4.82102 6.31108 4.48295 6.03835C4.14773 5.76278 3.75 5.625 3.28977 5.625C2.82955 5.625 2.4304 5.76278 2.09233 6.03835C1.7571 6.31108 1.49716 6.68324 1.3125 7.15483C1.13068 7.62358 1.03977 8.15341 1.03977 8.74432C1.03977 9.33523 1.13068 9.86648 1.3125 10.3381C1.49432 10.8068 1.75284 11.179 2.08807 11.4545C2.42614 11.7273 2.8267 11.8636 3.28977 11.8636ZM10.7855 12.1364C10.2145 12.1364 9.71449 11.9872 9.28551 11.6889C8.85938 11.3906 8.52841 10.9858 8.29261 10.4744C8.05682 9.96307 7.93892 9.38636 7.93892 8.74432C7.93892 8.10227 8.05682 7.52557 8.29261 7.0142C8.53125 6.50284 8.85511 6.09801 9.2642 5.79972C9.6733 5.50142 10.1349 5.35227 10.6491 5.35227C11.0298 5.35227 11.3821 5.43324 11.706 5.59517C12.0327 5.7571 12.3168 5.98153 12.5582 6.26847C12.7997 6.5554 12.9872 6.88636 13.1207 7.26136C13.2571 7.63352 13.3253 8.03125 13.3253 8.45455V8.72727H8.07528V8.45455H13.0526C13.0526 7.92898 12.9446 7.45312 12.7287 7.02699C12.5128 6.59801 12.223 6.2571 11.8594 6.00426C11.4957 5.75142 11.0923 5.625 10.6491 5.625C10.2003 5.625 9.79403 5.75852 9.4304 6.02557C9.06676 6.29261 8.77557 6.65625 8.55682 7.11648C8.33807 7.5767 8.22301 8.09659 8.21165 8.67614V8.71023C8.21165 9.28125 8.31108 9.80682 8.50994 10.2869C8.71165 10.7642 9.00426 11.1463 9.38778 11.4332C9.77131 11.7202 10.2372 11.8636 10.7855 11.8636C11.1889 11.8636 11.527 11.7926 11.7997 11.6506C12.0753 11.5085 12.2955 11.3452 12.4602 11.1605C12.6278 10.9759 12.7514 10.8182 12.831 10.6875L13.0526 10.8409C12.956 11.0057 12.8111 11.1889 12.6179 11.3906C12.4247 11.5923 12.1776 11.767 11.8764 11.9148C11.5753 12.0625 11.2116 12.1364 10.7855 12.1364ZM19.1772 6.83523L18.9045 6.90341C18.8164 6.61932 18.6928 6.38352 18.5337 6.19602C18.3775 6.00568 18.1857 5.86364 17.9585 5.76989C17.7312 5.6733 17.467 5.625 17.1658 5.625C16.6431 5.625 16.2198 5.75852 15.896 6.02557C15.5721 6.28977 15.4102 6.6392 15.4102 7.07386C15.4102 7.41761 15.5195 7.70597 15.7383 7.93892C15.9599 8.17187 16.2937 8.34375 16.7397 8.45455L17.7624 8.71023C18.2425 8.82955 18.6062 9.03125 18.8533 9.31534C19.1033 9.59943 19.2283 9.94318 19.2283 10.3466C19.2283 10.7017 19.1346 11.0142 18.9471 11.2841C18.7624 11.554 18.5067 11.7642 18.18 11.9148C17.8533 12.0625 17.4755 12.1364 17.0465 12.1364C16.4641 12.1364 15.9883 11.9943 15.619 11.7102C15.2496 11.4261 15.0096 11.0227 14.8988 10.5L15.1715 10.4318C15.2681 10.8949 15.4741 11.25 15.7894 11.4972C16.1076 11.7415 16.5266 11.8636 17.0465 11.8636C17.6147 11.8636 18.0749 11.7244 18.4272 11.446C18.7795 11.1676 18.9556 10.8011 18.9556 10.3466C18.9556 10.0085 18.8505 9.72301 18.6403 9.49006C18.43 9.2571 18.1147 9.08807 17.6942 8.98295L16.6715 8.72727C16.1687 8.60227 15.7866 8.39773 15.5252 8.11364C15.2667 7.82955 15.1374 7.48295 15.1374 7.07386C15.1374 6.73011 15.2227 6.4304 15.3931 6.17472C15.5664 5.91619 15.805 5.71449 16.109 5.5696C16.4158 5.42472 16.7681 5.35227 17.1658 5.35227C17.6715 5.35227 18.0934 5.47727 18.4315 5.72727C18.7695 5.97443 19.0181 6.34375 19.1772 6.83523ZM21.2088 12V5.45455H21.4815V12H21.2088ZM21.3452 4.26136C21.2713 4.26136 21.2074 4.23437 21.1534 4.1804C21.0994 4.12642 21.0724 4.0625 21.0724 3.98864C21.0724 3.91477 21.0994 3.85085 21.1534 3.79688C21.2074 3.7429 21.2713 3.71591 21.3452 3.71591C21.419 3.71591 21.483 3.7429 21.5369 3.79688C21.5909 3.85085 21.6179 3.91477 21.6179 3.98864C21.6179 4.0625 21.5909 4.12642 21.5369 4.1804C21.483 4.23437 21.419 4.26136 21.3452 4.26136ZM26.0508 14.5909C25.6843 14.5909 25.3462 14.5412 25.0366 14.4418C24.7269 14.3452 24.4599 14.1989 24.2354 14.0028C24.011 13.8097 23.8434 13.5682 23.7326 13.2784L23.9883 13.1761C24.0877 13.4318 24.2354 13.6435 24.4315 13.8111C24.6303 13.9815 24.8675 14.108 25.1431 14.1903C25.4215 14.2756 25.7241 14.3182 26.0508 14.3182C26.7326 14.3182 27.2638 14.1378 27.6445 13.777C28.0252 13.419 28.2156 12.8722 28.2156 12.1364V10.3636H28.1815C28.0678 10.7273 27.8988 11.0312 27.6744 11.2756C27.4499 11.517 27.19 11.6989 26.8945 11.821C26.5991 11.9403 26.2894 12 25.9656 12C25.4542 12 25.0096 11.8622 24.6317 11.5866C24.2539 11.3111 23.9613 10.929 23.7539 10.4403C23.5465 9.9517 23.4428 9.38636 23.4428 8.74432C23.4428 8.09659 23.5451 7.51705 23.7496 7.00568C23.9542 6.49432 24.2454 6.09091 24.6232 5.79545C25.0011 5.5 25.4485 5.35227 25.9656 5.35227C26.3178 5.35227 26.6388 5.42472 26.9286 5.5696C27.2184 5.71165 27.4698 5.91619 27.6829 6.18324C27.896 6.44744 28.0621 6.76136 28.1815 7.125H28.2156V5.45455H28.4883V12.1364C28.4883 12.6733 28.3903 13.1236 28.1942 13.4872C27.9982 13.8537 27.7184 14.1293 27.3548 14.3139C26.9911 14.4986 26.5565 14.5909 26.0508 14.5909ZM25.9656 11.7273C26.4201 11.7273 26.815 11.6065 27.1502 11.3651C27.4883 11.1236 27.7496 10.7798 27.9343 10.3338C28.1218 9.88494 28.2156 9.35511 28.2156 8.74432C28.2156 8.15341 28.1246 7.62358 27.9428 7.15483C27.761 6.68324 27.5011 6.31108 27.163 6.03835C26.8278 5.76278 26.4286 5.625 25.9656 5.625C25.5025 5.625 25.1019 5.76278 24.7638 6.03835C24.4286 6.31108 24.1701 6.68324 23.9883 7.15483C23.8065 7.62358 23.7156 8.15341 23.7156 8.74432C23.7156 9.33523 23.8065 9.85511 23.9883 10.304C24.1729 10.75 24.4329 11.0994 24.7681 11.3523C25.1062 11.6023 25.5053 11.7273 25.9656 11.7273ZM31.1154 7.60227V12H30.8427V5.45455H31.1154V6.49432H31.1495C31.3029 6.15341 31.5543 5.88068 31.9038 5.67614C32.256 5.47159 32.658 5.36932 33.1097 5.36932C33.5472 5.36932 33.9336 5.46449 34.2688 5.65483C34.604 5.84517 34.8668 6.10795 35.0572 6.44318C35.2475 6.77841 35.3427 7.16477 35.3427 7.60227V12H35.07V7.60227C35.07 7.02273 34.8881 6.55114 34.5245 6.1875C34.1609 5.82386 33.6893 5.64205 33.1097 5.64205C32.7234 5.64205 32.3796 5.72585 32.0785 5.89347C31.7802 6.06108 31.5444 6.29261 31.3711 6.58807C31.2006 6.88352 31.1154 7.22159 31.1154 7.60227ZM37.1857 3.76705V3.27273H43.3008V3.76705H40.5096V12H39.9769V3.76705H37.1857ZM46.6619 12.1364C46.071 12.1364 45.5568 11.9901 45.1193 11.6974C44.6818 11.4048 44.3438 11.0043 44.1051 10.4957C43.8665 9.98722 43.7472 9.40767 43.7472 8.7571C43.7472 8.10369 43.8665 7.52131 44.1051 7.00994C44.3466 6.49858 44.6776 6.09517 45.098 5.79972C45.5185 5.50426 45.9986 5.35653 46.5384 5.35653C46.9048 5.35653 47.2514 5.4304 47.5781 5.57812C47.9077 5.72301 48.1974 5.93324 48.4474 6.20881C48.7003 6.48437 48.8977 6.81676 49.0398 7.20597C49.1847 7.59517 49.2571 8.03267 49.2571 8.51847V8.84233H44.0753V8.36932H48.7372C48.7372 7.89489 48.6406 7.46733 48.4474 7.08665C48.2543 6.70597 47.9915 6.40341 47.6591 6.17898C47.3267 5.95455 46.9531 5.84233 46.5384 5.84233C46.1037 5.84233 45.7159 5.96449 45.375 6.20881C45.0369 6.45028 44.7685 6.77699 44.5696 7.18892C44.3736 7.60085 44.2713 8.06108 44.2628 8.5696V8.78267C44.2628 9.32812 44.358 9.81818 44.5483 10.2528C44.7415 10.6847 45.017 11.027 45.375 11.2798C45.733 11.5298 46.1619 11.6548 46.6619 11.6548C47.0199 11.6548 47.3253 11.5952 47.5781 11.4759C47.8338 11.3537 48.0426 11.206 48.2045 11.0327C48.3665 10.8594 48.4886 10.6918 48.571 10.5298L49.044 10.7216C48.9446 10.9403 48.7898 11.1591 48.5795 11.3778C48.3722 11.5937 48.108 11.7741 47.7869 11.919C47.4688 12.0639 47.0938 12.1364 46.6619 12.1364ZM51.5668 7.75568V12H51.0469V5.45455H51.554V6.49006H51.6051C51.7585 6.15199 52.0043 5.88068 52.3423 5.67614C52.6804 5.47159 53.0824 5.36932 53.5483 5.36932C53.9886 5.36932 54.375 5.46307 54.7074 5.65057C55.0426 5.83807 55.304 6.10511 55.4915 6.4517C55.6818 6.79545 55.777 7.20597 55.777 7.68324V12H55.2571V7.70455C55.2571 7.14773 55.0909 6.70028 54.7585 6.36222C54.429 6.02131 53.9929 5.85085 53.4503 5.85085C53.0866 5.85085 52.7628 5.9304 52.4787 6.08949C52.1946 6.24858 51.9716 6.47159 51.8097 6.75852C51.6477 7.04261 51.5668 7.375 51.5668 7.75568ZM60.2514 5.45455V5.91903H57.392V5.45455H60.2514ZM58.3594 3.88636H58.875V10.4531C58.875 10.7202 58.9261 10.9389 59.0284 11.1094C59.1335 11.277 59.2699 11.402 59.4375 11.4844C59.608 11.5639 59.7898 11.6037 59.983 11.6037C60.0767 11.6037 60.1577 11.5966 60.2259 11.5824C60.2969 11.5682 60.3636 11.5497 60.4261 11.527L60.554 12C60.4744 12.0284 60.3864 12.0526 60.2898 12.0724C60.1932 12.0952 60.0795 12.1065 59.9489 12.1065C59.6761 12.1065 59.4176 12.0455 59.1733 11.9233C58.9318 11.8011 58.7358 11.6236 58.5852 11.3906C58.4347 11.1577 58.3594 10.8764 58.3594 10.5469V3.88636Z" fill="white"/>
<circle cx="2.5" cy="9.5" r="1.5" fill="#7CF5F5"/>
</svg>
